<?xml version="1.0" standalone="no"?>
<svg xmlns:xlink="http://www.w3.org/1999/xlink" id="wave" style="transform:rotate(180deg); transition: 0.3s" viewBox="0 0 1440 100" version="1.1" xmlns="http://www.w3.org/2000/svg"><defs><linearGradient id="sw-gradient-0" x1="0" x2="0" y1="1" y2="0"><stop stop-color="rgba(206, 243, 195, 1)" offset="0%"/><stop stop-color="rgba(214.338, 177.668, 85.992, 1)" offset="100%"/></linearGradient></defs><path style="transform:translate(0, 0px); opacity:1" fill="url(#sw-gradient-0)" d="M0,70L30,71.7C60,73,120,77,180,71.7C240,67,300,53,360,51.7C420,50,480,60,540,56.7C600,53,660,37,720,26.7C780,17,840,13,900,13.3C960,13,1020,17,1080,23.3C1140,30,1200,40,1260,45C1320,50,1380,50,1440,48.3C1500,47,1560,43,1620,36.7C1680,30,1740,20,1800,21.7C1860,23,1920,37,1980,43.3C2040,50,2100,50,2160,55C2220,60,2280,70,2340,73.3C2400,77,2460,73,2520,71.7C2580,70,2640,70,2700,65C2760,60,2820,50,2880,51.7C2940,53,3000,67,3060,61.7C3120,57,3180,33,3240,23.3C3300,13,3360,17,3420,25C3480,33,3540,47,3600,55C3660,63,3720,67,3780,56.7C3840,47,3900,23,3960,16.7C4020,10,4080,20,4140,30C4200,40,4260,50,4290,55L4320,60L4320,100L4290,100C4260,100,4200,100,4140,100C4080,100,4020,100,3960,100C3900,100,3840,100,3780,100C3720,100,3660,100,3600,100C3540,100,3480,100,3420,100C3360,100,3300,100,3240,100C3180,100,3120,100,3060,100C3000,100,2940,100,2880,100C2820,100,2760,100,2700,100C2640,100,2580,100,2520,100C2460,100,2400,100,2340,100C2280,100,2220,100,2160,100C2100,100,2040,100,1980,100C1920,100,1860,100,1800,100C1740,100,1680,100,1620,100C1560,100,1500,100,1440,100C1380,100,1320,100,1260,100C1200,100,1140,100,1080,100C1020,100,960,100,900,100C840,100,780,100,720,100C660,100,600,100,540,100C480,100,420,100,360,100C300,100,240,100,180,100C120,100,60,100,30,100L0,100Z"/></svg>